<svg width="27" height="27" viewBox="0 0 27 27" fill="none" xmlns="http://www.w3.org/2000/svg">
<path d="M9.96042 11.2763C12.8672 11.2763 15.2236 8.91992 15.2236 6.01316C15.2236 3.1064 12.8672 0.75 9.96042 0.75C7.05366 0.75 4.69727 3.1064 4.69727 6.01316C4.69727 8.91992 7.05366 11.2763 9.96042 11.2763Z" fill="white" stroke="white" stroke-width="1.5"/>
<path d="M17.8555 9.96053C20.0356 9.96053 21.8028 8.19323 21.8028 6.01316C21.8028 3.8331 20.0356 2.0658 17.8555 2.0658" stroke="white" stroke-width="1.5" stroke-linecap="round"/>
<path d="M5.8673 25.203C7.10036 25.5532 8.49021 25.75 9.96053 25.75C15.0474 25.75 19.1711 23.3936 19.1711 20.4869C19.1711 17.5801 15.0474 15.2237 9.96053 15.2237C4.8737 15.2237 0.75 17.5801 0.75 20.4869C0.75 20.9412 0.85075 21.3821 1.04017 21.8026" stroke="white" stroke-width="1.5" stroke-linecap="round"/>
<path d="M21.8027 16.5395C24.1109 17.0457 25.7501 18.3275 25.7501 19.829C25.7501 21.1833 24.4163 22.3591 22.4606 22.9479" stroke="white" stroke-width="1.5" stroke-linecap="round"/>
</svg>
